<?xml version="1.0" standalone="no"?>
<!DOCTYPE svg PUBLIC "-//W3C//DTD SVG 20010904//EN"
 "http://www.w3.org/TR/2001/REC-SVG-20010904/DTD/svg10.dtd">
<svg version="1.0" xmlns="http://www.w3.org/2000/svg"
 width="50.000000pt" height="30.000000pt" viewBox="0 0 50.000000 30.000000"
 preserveAspectRatio="xMidYMid meet">

<g transform="translate(0.000000,30.000000) scale(0.100000,-0.100000)"
fill="#000000" stroke="none">
<path d="M40 150 l0 -130 210 0 210 0 0 130 0 130 -210 0 -210 0 0 -130z m185
100 c3 -4 -3 -22 -11 -40 -20 -39 -14 -112 11 -140 16 -18 15 -19 -19 -28 -43
-12 -95 0 -120 27 -40 44 -38 128 4 166 32 29 120 39 135 15z m178 -10 c35
-28 49 -81 34 -127 -16 -48 -55 -76 -107 -76 -53 0 -68 14 -46 44 20 30 21
108 0 137 -22 31 -10 42 45 42 34 0 56 -6 74 -20z m-124 -56 c12 -34 11 -44
-2 -76 -18 -43 -31 -48 -48 -16 -24 44 -6 145 24 135 7 -2 18 -21 26 -43z"/>
</g>
</svg>
