<?xml version="1.0" standalone="no"?>
<!DOCTYPE svg PUBLIC "-//W3C//DTD SVG 20010904//EN"
 "http://www.w3.org/TR/2001/REC-SVG-20010904/DTD/svg10.dtd">
<svg version="1.0" xmlns="http://www.w3.org/2000/svg"
 width="272.000000pt" height="346.000000pt" viewBox="0 0 272.000000 346.000000"
 preserveAspectRatio="xMidYMid meet">

<g transform="translate(0.000000,346.000000) scale(0.100000,-0.100000)"
fill="#000000" stroke="none">
<path d="M641 3449 c-44 -17 -81 -51 -101 -89 -18 -35 -20 -60 -20 -230 l0
-190 -190 0 c-219 0 -249 -8 -297 -82 l-28 -42 -3 -1320 c-2 -933 0 -1332 8
-1359 6 -20 24 -53 41 -72 61 -69 9 -66 1064 -63 915 3 951 4 989 22 23 12 50
38 67 65 l29 45 0 193 0 193 192 0 c186 0 192 1 234 25 23 14 53 42 66 62 l23
38 3 1025 2 1025 -382 382 -383 383 -645 -1 c-379 0 -655 -4 -669 -10z m1221
-436 c3 -216 3 -218 30 -264 29 -50 79 -98 131 -126 27 -15 64 -18 250 -21
l217 -3 -2 -906 -3 -905 -24 -19 c-22 -18 -51 -19 -845 -19 -814 0 -822 0
-844 20 l-22 21 0 1198 c0 1128 1 1199 18 1213 9 9 24 18 32 21 8 3 250 6 537
6 l522 1 3 -217z m-1342 -1330 c0 -1152 -6 -1064 73 -1127 l39 -31 669 -3 669
-2 0 -119 c0 -102 -3 -122 -19 -142 l-19 -24 -827 0 -827 0 -24 28 -24 28 0
1183 c0 1182 0 1183 21 1210 20 26 22 26 145 26 l124 0 0 -1027z"/>
<path d="M910 2420 c-25 -25 -26 -61 -1 -91 l19 -24 690 0 c664 0 691 1 711
19 29 26 28 80 -1 100 -20 14 -104 16 -710 16 -675 0 -688 0 -708 -20z"/>
<path d="M910 2050 c-25 -25 -26 -61 -1 -91 l19 -24 690 0 c664 0 691 1 711
19 29 26 28 80 -1 100 -20 14 -104 16 -710 16 -675 0 -688 0 -708 -20z"/>
<path d="M910 1680 c-25 -25 -26 -61 -1 -91 l19 -24 690 0 c664 0 691 1 711
19 29 26 28 80 -1 100 -20 14 -104 16 -710 16 -675 0 -688 0 -708 -20z"/>
<path d="M2010 1461 c-72 -22 -147 -88 -175 -153 -8 -21 -15 -65 -15 -100 0
-78 26 -134 87 -187 122 -108 332 -90 430 38 106 137 42 339 -125 395 -47 17
-158 20 -202 7z m176 -112 c102 -49 122 -175 39 -247 -116 -103 -295 -33 -295
116 0 52 34 101 90 130 55 28 111 28 166 1z"/>
<path d="M2019 1281 c-47 -47 -33 -132 26 -159 100 -46 204 39 160 131 -19 41
-50 57 -111 57 -37 0 -51 -6 -75 -29z"/>
</g>
</svg>
