<?xml version="1.0" standalone="no"?>
<!DOCTYPE svg PUBLIC "-//W3C//DTD SVG 20010904//EN"
 "http://www.w3.org/TR/2001/REC-SVG-20010904/DTD/svg10.dtd">
<svg version="1.0" xmlns="http://www.w3.org/2000/svg"
 width="406.000000pt" height="334.000000pt" viewBox="0 0 406.000000 334.000000"
 preserveAspectRatio="xMidYMid meet">

<g transform="translate(0.000000,334.000000) scale(0.100000,-0.100000)"
fill="#000000" stroke="none">
<path d="M1875 3334 c-167 -26 -298 -65 -430 -131 -364 -182 -615 -512 -702
-923 -22 -105 -24 -360 -4 -470 30 -171 104 -356 202 -505 66 -101 250 -286
353 -355 224 -150 461 -221 736 -221 229 0 408 42 599 142 355 185 599 507
682 902 29 133 31 370 6 499 -53 266 -171 492 -357 679 -185 187 -403 306
-665 364 -68 15 -358 28 -420 19z m365 -271 c105 -21 236 -72 331 -129 94 -56
230 -179 300 -272 97 -128 173 -309 199 -474 17 -107 8 -301 -19 -405 -78
-299 -278 -551 -546 -687 -626 -318 -1380 57 -1511 751 -22 119 -15 325 15
440 49 187 142 350 276 486 251 253 606 361 955 290z"/>
<path d="M1977 2768 c-19 -17 -44 -84 -102 -262 l-77 -239 -238 6 c-297 8
-320 2 -320 -86 0 -42 0 -42 230 -207 102 -73 187 -135 189 -136 1 -2 -31
-105 -73 -231 -42 -125 -76 -242 -76 -259 0 -41 36 -74 81 -74 30 0 68 24 234
145 110 80 205 143 211 141 6 -2 98 -68 203 -145 167 -122 198 -141 230 -141
44 0 81 32 81 70 0 13 -34 129 -76 258 -41 129 -74 235 -72 237 2 1 89 64 193
139 105 75 198 146 208 158 36 42 11 124 -40 130 -10 1 -128 3 -262 3 l-243 0
-79 240 c-55 170 -84 245 -100 258 -29 24 -73 21 -102 -5z"/>
<path d="M340 1185 c-189 -189 -342 -346 -339 -349 3 -3 179 -14 392 -24 213
-10 389 -21 392 -23 2 -3 12 -163 20 -355 9 -192 18 -369 21 -393 l6 -44 349
349 349 349 -97 46 c-306 145 -557 395 -694 693 -24 53 -46 96 -49 96 -3 0
-160 -155 -350 -345z"/>
<path d="M3326 1445 c-67 -149 -166 -288 -294 -415 -65 -63 -151 -139 -193
-167 -82 -56 -222 -132 -279 -152 l-34 -11 349 -350 c192 -192 351 -348 353
-345 2 2 12 178 23 391 10 213 21 389 24 392 3 3 179 14 392 24 213 10 389 21
392 24 5 5 -679 694 -689 694 -3 0 -23 -38 -44 -85z"/>
</g>
</svg>
