<?xml version="1.0" standalone="no"?>
<!DOCTYPE svg PUBLIC "-//W3C//DTD SVG 20010904//EN"
 "http://www.w3.org/TR/2001/REC-SVG-20010904/DTD/svg10.dtd">
<svg version="1.0" xmlns="http://www.w3.org/2000/svg"
 width="100px" height="100px" viewBox="0 0 301.000000 300.000000"
 preserveAspectRatio="xMidYMid meet">

<g transform="translate(0.000000,300.000000) scale(0.100000,-0.100000)"
fill="#000000" stroke="none">
<path d="M1237 2980 c-436 -79 -819 -350 -1041 -735 -274 -477 -256 -1099 44
-1560 246 -376 629 -617 1075 -676 124 -16 372 -6 497 21 188 40 370 116 536
226 122 81 319 280 405 410 376 569 327 1315 -121 1829 -205 235 -503 409
-817 477 -138 30 -434 34 -578 8z m213 -394 l0 -204 -137 -6 c-76 -3 -175 -8
-220 -10 l-82 -5 18 37 c62 135 125 228 212 314 70 69 74 71 177 76 l32 2 0
-204z m256 179 c41 -26 127 -122 179 -200 53 -81 105 -176 105 -194 0 -6 -35
-8 -87 -5 -49 2 -145 7 -215 10 l-128 6 0 205 0 205 63 -7 c34 -4 71 -13 83
-20z m-674 -127 c-30 -46 -77 -129 -103 -184 l-48 -101 -113 -13 c-62 -6 -146
-18 -187 -26 -41 -7 -77 -11 -80 -9 -9 9 151 165 231 225 42 32 103 73 135 91
55 31 201 99 214 99 4 0 -18 -37 -49 -82z m969 51 c159 -68 322 -181 438 -305
40 -42 70 -78 68 -80 -1 -2 -54 5 -117 16 -63 10 -149 21 -191 25 l-75 7 -44
94 c-23 52 -67 132 -97 177 -30 45 -57 85 -59 90 -8 11 -1 9 77 -24z m-551
-774 l0 -355 -305 0 -305 0 0 24 c0 56 22 239 41 341 18 98 74 313 84 323 2 2
102 7 222 11 120 4 228 9 241 9 l22 2 0 -355z m478 339 c132 -7 116 10 162
-169 39 -152 60 -280 67 -412 l6 -113 -301 0 -302 0 0 353 0 353 128 -3 c70
-2 178 -6 240 -9z m-1092 -31 c-48 -157 -90 -389 -102 -560 l-7 -103 -256 0
-257 0 7 71 c17 153 58 297 125 435 44 90 44 90 97 107 64 20 271 56 380 65
13 2 17 -3 13 -15z m1560 -14 c61 -10 135 -26 164 -36 51 -17 56 -22 92 -88
67 -125 138 -380 138 -497 l0 -28 -254 0 -253 0 -7 31 c-3 17 -6 55 -6 83 0
110 -61 438 -100 541 l-10 26 63 -7 c34 -3 112 -14 173 -25z m-1662 -861 c12
-182 51 -396 101 -564 6 -21 4 -21 -42 -17 -91 9 -288 42 -339 58 -61 18 -62
19 -112 120 -64 129 -110 298 -125 458 l-5 47 258 0 257 0 7 -102z m716 -253
l0 -355 -132 0 c-73 0 -183 3 -245 7 l-112 6 -30 111 c-50 180 -91 431 -91
558 l0 28 305 0 305 0 0 -355z m712 298 c-5 -112 -24 -259 -47 -368 -23 -113
-59 -240 -74 -263 -6 -10 -66 -15 -244 -19 l-237 -6 0 356 0 357 303 0 302 0
-3 -57z m628 24 c0 -55 -31 -217 -57 -302 -14 -44 -45 -122 -69 -173 -34 -71
-51 -95 -72 -103 -71 -27 -149 -42 -393 -74 l-36 -5 24 82 c13 45 32 124 43
177 17 84 24 143 46 379 l5 52 255 0 254 0 0 -33z m-2140 -741 c58 -8 135 -18
173 -22 43 -4 67 -11 67 -19 0 -22 107 -223 154 -290 26 -36 45 -65 42 -65 -2
0 -42 16 -87 36 -99 42 -212 109 -294 174 -62 50 -205 192 -205 205 0 4 10 5
23 2 12 -3 69 -13 127 -21z m1824 -22 c-85 -104 -225 -214 -365 -288 -88 -47
-194 -92 -185 -79 2 5 29 45 59 90 30 45 73 124 97 176 l43 94 141 17 c78 10
157 21 176 26 71 17 74 14 34 -36z m-1036 -29 c9 -3 12 -54 12 -210 l0 -206
-62 6 c-45 5 -75 15 -103 34 -60 42 -164 177 -223 289 l-52 99 208 -4 c114 -2
213 -6 220 -8z m547 -7 c-24 -80 -141 -252 -225 -332 -58 -54 -76 -66 -104
-66 -18 0 -48 -3 -65 -6 l-31 -7 2 209 3 209 175 5 c96 3 192 7 213 8 35 2 38
0 32 -20z"/>
</g>
</svg>
