<?xml version="1.0" standalone="no"?>
<!DOCTYPE svg PUBLIC "-//W3C//DTD SVG 20010904//EN"
 "http://www.w3.org/TR/2001/REC-SVG-20010904/DTD/svg10.dtd">
<svg version="1.0" xmlns="http://www.w3.org/2000/svg"
 width="10px" height="10px" viewBox="0 0 360.000000 342.000000"
 preserveAspectRatio="xMidYMid meet">

<g transform="translate(0.000000,342.000000) scale(0.100000,-0.100000)"
fill="#000000" stroke="none">
<path d="M1605 3413 c-231 -36 -353 -136 -403 -330 -14 -58 -17 -112 -15 -373
1 -290 2 -310 26 -401 66 -255 225 -473 413 -565 74 -37 83 -39 174 -39 91 0
100 2 174 38 223 111 404 396 435 689 16 143 7 578 -13 656 -42 165 -136 258
-311 307 -45 13 -110 18 -255 20 -107 2 -208 1 -225 -2z m-5 -450 c76 -22 116
-27 200 -27 84 0 124 5 200 27 209 60 257 28 271 -178 4 -60 17 -150 30 -199
20 -81 21 -95 10 -167 -29 -192 -119 -368 -254 -497 -169 -162 -342 -163 -509
-5 -113 108 -195 249 -237 404 -34 128 -35 172 -7 289 15 61 26 134 26 175 0
90 15 141 50 177 37 37 92 37 220 1z"/>
<path d="M572 2735 c-115 -25 -184 -81 -215 -175 -22 -66 -29 -215 -19 -385
11 -173 31 -239 110 -358 132 -201 326 -242 490 -102 61 53 137 174 168 268
27 79 28 91 28 297 1 180 -2 225 -17 273 -33 106 -110 164 -248 186 -87 15
-220 12 -297 -4z m424 -282 c28 -16 44 -62 44 -124 0 -27 7 -82 16 -123 15
-68 15 -79 0 -146 -24 -108 -71 -195 -146 -271 -104 -106 -191 -121 -295 -49
-80 56 -148 153 -184 264 -31 95 -34 137 -17 204 9 33 16 79 16 103 1 51 14
117 27 130 20 20 108 28 308 26 142 -2 217 -6 231 -14z"/>
<path d="M2702 2735 c-115 -25 -184 -81 -215 -175 -22 -66 -29 -215 -19 -385
11 -173 31 -239 110 -358 132 -201 326 -242 490 -102 61 53 137 174 168 268
27 79 28 91 28 297 1 176 -2 225 -16 270 -21 67 -66 124 -120 151 -92 47 -293
63 -426 34z m424 -282 c27 -16 44 -62 44 -122 0 -25 7 -79 17 -118 15 -68 15
-78 0 -148 -24 -110 -71 -199 -147 -276 -105 -107 -191 -121 -296 -48 -62 42
-111 104 -154 194 -53 108 -67 192 -46 272 9 34 16 80 16 104 1 51 14 117 27
130 20 20 108 28 308 26 142 -2 217 -6 231 -14z"/>
<path d="M505 1539 c-198 -30 -353 -96 -432 -183 -72 -78 -75 -93 -71 -423 l3
-283 33 -32 32 -33 240 -3 240 -3 0 209 c0 114 5 235 11 268 32 177 169 325
396 431 l78 37 -35 8 c-50 13 -424 18 -495 7z"/>
<path d="M2640 1539 c-30 -5 -59 -11 -65 -13 -5 -2 25 -20 68 -39 102 -47 218
-128 273 -191 25 -28 62 -84 82 -125 l37 -75 3 -258 3 -258 232 0 c345 0 330
-19 325 394 -3 266 -4 283 -25 321 -62 118 -223 201 -463 240 -104 16 -377 19
-470 4z"/>
<path d="M1197 1474 c-255 -70 -447 -197 -515 -341 l-27 -58 0 -461 0 -461 30
-48 c22 -36 45 -57 84 -77 l53 -28 977 0 c929 0 978 1 1016 19 22 10 54 34 72
52 62 65 63 77 63 539 0 383 -2 423 -19 479 -54 173 -244 308 -550 391 -41 11
-76 19 -77 17 -1 -1 -23 -78 -49 -170 -25 -92 -64 -220 -87 -285 -73 -209
-255 -628 -258 -592 0 8 -14 168 -30 355 l-29 340 40 72 c62 114 63 113 -86
113 -101 0 -127 -3 -131 -15 -3 -8 13 -49 36 -91 l43 -76 -28 -347 c-15 -190
-31 -350 -35 -354 -8 -9 -109 206 -184 390 -58 140 -133 370 -177 536 -18 70
-36 127 -39 126 -3 0 -45 -11 -93 -25z"/>
</g>
</svg>
