<?xml version="1.0" standalone="no"?>
<!DOCTYPE svg PUBLIC "-//W3C//DTD SVG 20010904//EN"
 "http://www.w3.org/TR/2001/REC-SVG-20010904/DTD/svg10.dtd">
<svg version="1.0" xmlns="http://www.w3.org/2000/svg"
 width="279.000000pt" height="278.000000pt" viewBox="0 0 279.000000 278.000000"
 preserveAspectRatio="xMidYMid meet">

<g transform="translate(0.000000,278.000000) scale(0.100000,-0.100000)"
fill="#000000" stroke="none">
<path d="M1963 2063 c59 -2 154 -2 210 0 56 1 8 3 -108 3 -115 0 -161 -2 -102
-3z"/>
<path d="M1684 1790 c0 -151 2 -213 3 -137 2 75 2 199 0 275 -1 75 -3 13 -3
-138z"/>
<path d="M1934 1795 c0 -88 2 -123 3 -77 2 46 2 118 0 160 -1 42 -3 5 -3 -83z"/>
<path d="M410 1466 c0 -2 8 -10 18 -17 15 -13 16 -12 3 4 -13 16 -21 21 -21
13z"/>
<path d="M2098 1413 c12 -2 32 -2 45 0 12 2 2 4 -23 4 -25 0 -35 -2 -22 -4z"/>
<path d="M744 1364 c-10 -8 -13 -13 -7 -9 7 3 23 8 34 10 29 6 37 15 13 15
-11 0 -29 -7 -40 -16z"/>
<path d="M2113 1373 c9 -2 23 -2 30 0 6 3 -1 5 -18 5 -16 0 -22 -2 -12 -5z"/>
<path d="M1934 1338 l-19 -23 23 19 c21 18 27 26 19 26 -2 0 -12 -10 -23 -22z"/>
<path d="M543 1343 c69 -3 96 -7 91 -15 -4 -7 -3 -8 4 -4 31 19 4 26 -90 24
l-103 -2 98 -3z"/>
<path d="M1203 1343 c104 -2 270 -2 370 0 100 1 16 2 -188 2 -203 0 -285 -1
-182 -2z"/>
<path d="M477 1203 c18 -2 50 -2 70 0 21 2 7 4 -32 4 -38 0 -55 -2 -38 -4z"/>
<path d="M1623 1203 c48 -2 125 -2 170 0 45 1 6 3 -88 3 -93 0 -130 -2 -82 -3z"/>
<path d="M931 1164 c0 -11 3 -14 6 -6 3 7 2 16 -1 19 -3 4 -6 -2 -5 -13z"/>
<path d="M744 956 c11 -9 29 -16 40 -16 24 0 16 9 -13 15 -11 2 -27 7 -34 10
-6 4 -3 -1 7 -9z"/>
<path d="M2113 943 c9 -2 23 -2 30 0 6 3 -1 5 -18 5 -16 0 -22 -2 -12 -5z"/>
<path d="M1060 750 c0 -5 -22 -10 -50 -10 -43 0 -50 -3 -50 -20 0 -17 7 -20
45 -20 25 0 45 -4 45 -10 0 -5 -20 -10 -45 -10 -41 0 -45 -2 -45 -25 0 -23 3
-25 50 -25 28 0 50 -4 50 -10 0 -5 -22 -10 -50 -10 -43 0 -50 -3 -50 -20 0
-20 6 -20 293 -19 184 0 284 4 270 9 -13 5 -23 14 -23 20 0 7 9 9 23 5 12 -4
24 -7 27 -7 27 -1 39 4 43 17 5 12 2 12 -18 3 -34 -16 -75 12 -75 51 0 39 19
52 74 50 l46 -2 0 -54 c0 -40 -5 -58 -20 -73 l-20 -20 90 0 90 0 0 95 0 95
-260 0 c-253 0 -260 -1 -260 -20 0 -13 7 -20 20 -20 11 0 20 -4 20 -10 0 -5
-9 -10 -20 -10 -16 0 -20 -7 -20 -31 0 -22 5 -32 20 -36 28 -7 25 -23 -4 -23
-30 0 -37 20 -38 95 l-1 55 -78 0 c-46 0 -79 -4 -79 -10z m120 -49 c13 -25 13
-91 0 -91 -5 0 -10 13 -10 29 0 41 -9 61 -29 61 -26 0 -41 -21 -41 -57 0 -18
-4 -33 -10 -33 -5 0 -10 24 -10 53 l0 54 45 1 c35 2 46 -2 55 -17z m190 10 c0
-5 -9 -11 -20 -14 -14 -3 -21 -17 -26 -46 -9 -58 -24 -51 -24 12 l0 54 35 1
c19 1 35 -2 35 -7z m98 -3 c7 -7 12 -22 12 -35 0 -20 -5 -23 -41 -23 -27 0
-38 -4 -33 -11 4 -7 21 -9 41 -6 24 4 33 2 30 -6 -2 -7 -18 -13 -36 -15 -59
-6 -92 48 -54 90 18 20 63 24 81 6z m262 -7 c5 -11 10 -35 10 -54 l0 -35 -47
2 c-46 1 -48 2 -48 31 0 27 4 30 33 33 40 4 42 22 2 22 -16 0 -30 5 -30 10 0
6 16 10 35 10 24 0 37 -6 45 -19z"/>
<path d="M1407 694 c-15 -15 -6 -24 24 -24 20 0 29 4 27 13 -5 14 -40 21 -51
11z"/>
<path d="M1660 645 c0 -9 9 -15 24 -15 13 0 26 7 30 15 4 11 -2 15 -24 15 -20
0 -30 -5 -30 -15z"/>
<path d="M1527 693 c-14 -13 -7 -43 12 -53 15 -7 25 -5 42 9 20 16 21 21 10
35 -14 16 -52 22 -64 9z"/>
</g>
</svg>
