<?xml version="1.0" standalone="no"?>
<!DOCTYPE svg PUBLIC "-//W3C//DTD SVG 20010904//EN"
 "http://www.w3.org/TR/2001/REC-SVG-20010904/DTD/svg10.dtd">
<svg version="1.0" xmlns="http://www.w3.org/2000/svg"
 width="18px" height="18px" viewBox="0 0 200.000000 164.000000"
 preserveAspectRatio="xMidYMid meet">

<g transform="translate(0.000000,164.000000) scale(0.100000,-0.100000)"
fill="#000000" stroke="none">
<path d="M190 1330 l0 -100 105 0 105 0 0 100 0 100 -105 0 -105 0 0 -100z"/>
<path d="M570 1330 l0 -100 620 0 620 0 0 100 0 100 -620 0 -620 0 0 -100z"/>
<path d="M190 1015 l0 -105 105 0 105 0 0 105 0 105 -105 0 -105 0 0 -105z"/>
<path d="M570 1015 l0 -105 620 0 620 0 0 105 0 105 -620 0 -620 0 0 -105z"/>
<path d="M190 655 l0 -105 105 0 105 0 0 105 0 105 -105 0 -105 0 0 -105z"/>
<path d="M570 655 l0 -105 620 0 620 0 0 105 0 105 -620 0 -620 0 0 -105z"/>
<path d="M190 310 l0 -100 105 0 105 0 0 100 0 100 -105 0 -105 0 0 -100z"/>
<path d="M570 310 l0 -100 620 0 620 0 0 100 0 100 -620 0 -620 0 0 -100z"/>
</g>
</svg>
